<svg xmlns="http://www.w3.org/2000/svg" xmlns:xlink="http://www.w3.org/1999/xlink" viewBox="0,0,256,256" width="100px" height="100px"><g fill="none" fill-rule="nonzero" stroke="none" stroke-width="1" stroke-linecap="butt" stroke-linejoin="miter" stroke-miterlimit="10" stroke-dasharray="" stroke-dashoffset="0" font-family="none" font-weight="none" font-size="none" text-anchor="none" style="mix-blend-mode: normal"><g transform="scale(2.56,2.56)"><path d="M13,27c-1.10457,0 -2,0.89543 -2,2c0,1.10457 0.89543,2 2,2c1.10457,0 2,-0.89543 2,-2c0,-1.10457 -0.89543,-2 -2,-2z" fill="#78a0cf"></path><path d="M77,12c-0.55228,0 -1,0.44772 -1,1c0,0.55228 0.44772,1 1,1c0.55228,0 1,-0.44772 1,-1c0,-0.55228 -0.44772,-1 -1,-1z" fill="#f1bc19"></path><path d="M50,13c-20.43454,0 -37,16.56546 -37,37c0,20.43454 16.56546,37 37,37c20.43454,0 37,-16.56546 37,-37c0,-20.43454 -16.56546,-37 -37,-37z" fill="#cdf3cd"></path><path d="M83,11c-2.20914,0 -4,1.79086 -4,4c0,2.20914 1.79086,4 4,4c2.20914,0 4,-1.79086 4,-4c0,-2.20914 -1.79086,-4 -4,-4z" fill="#f1bc19"></path><path d="M87,22c-1.10457,0 -2,0.89543 -2,2c0,1.10457 0.89543,2 2,2c1.10457,0 2,-0.89543 2,-2c0,-1.10457 -0.89543,-2 -2,-2z" fill="#78a0cf"></path><path d="M81,74c-1.10457,0 -2,0.89543 -2,2c0,1.10457 0.89543,2 2,2c1.10457,0 2,-0.89543 2,-2c0,-1.10457 -0.89543,-2 -2,-2zM15,59c-2.20914,0 -4,1.79086 -4,4c0,2.20914 1.79086,4 4,4c2.20914,0 4,-1.79086 4,-4c0,-2.20914 -1.79086,-4 -4,-4z" fill="#fbcd59"></path><path d="M25,85c-1.10457,0 -2,0.89543 -2,2c0,1.10457 0.89543,2 2,2c1.10457,0 2,-0.89543 2,-2c0,-1.10457 -0.89543,-2 -2,-2z" fill="#78a0cf"></path><path d="M18.5,51c-1.38071,0 -2.5,1.11929 -2.5,2.5c0,1.38071 1.11929,2.5 2.5,2.5c1.38071,0 2.5,-1.11929 2.5,-2.5c0,-1.38071 -1.11929,-2.5 -2.5,-2.5z" fill="#ffffff"></path><path d="M21,66c-0.55228,0 -1,0.44772 -1,1c0,0.55228 0.44772,1 1,1c0.55228,0 1,-0.44772 1,-1c0,-0.55228 -0.44772,-1 -1,-1z" fill="#f1bc19"></path><path d="M80,33c-0.55228,0 -1,0.44772 -1,1c0,0.55228 0.44772,1 1,1c0.55228,0 1,-0.44772 1,-1c0,-0.55228 -0.44772,-1 -1,-1z" fill="#ffffff"></path><path d="M27.05,70.3c-0.744,0 -1.35,-0.612 -1.35,-1.366v-36.868c0,-0.754 0.605,-1.366 1.35,-1.366h45.9c0.744,0 1.35,0.612 1.35,1.366v36.867c0,0.754 -0.605,1.366 -1.351,1.366h-45.899z" fill="#fcba7f"></path><path d="M72.95,31.4c0.358,0 0.65,0.299 0.65,0.666v36.868c0,0.367 -0.292,0.666 -0.651,0.666h-45.899c-0.358,0 -0.65,-0.299 -0.65,-0.666v-36.868c0,-0.367 0.292,-0.666 0.65,-0.666h45.9M72.95,30h-45.9c-1.132,0 -2.05,0.925 -2.05,2.066v36.868c0,1.141 0.918,2.066 2.05,2.066h45.899c1.133,0 2.051,-0.925 2.051,-2.066v-36.868c0,-1.141 -0.918,-2.066 -2.05,-2.066z" fill="#472b29"></path><g fill="#c7dff1"><path d="M29.583,34.5h40.917v32h-40.917z"></path></g><g fill="#472b29"><path d="M69.708,35h-2.583c-0.276,0 -0.5,-0.224 -0.5,-0.5c0,-0.276 0.224,-0.5 0.5,-0.5h2.583c0.276,0 0.5,0.224 0.5,0.5c0,0.276 -0.224,0.5 -0.5,0.5z"></path></g><g fill="#472b29"><path d="M63.125,35h-5.938c-0.276,0 -0.5,-0.224 -0.5,-0.5c0,-0.276 0.224,-0.5 0.5,-0.5h5.938c0.276,0 0.5,0.224 0.5,0.5c0,0.276 -0.224,0.5 -0.5,0.5z"></path></g><g fill="#472b29"><path d="M71,67h-41.917v-33h24.729c0.276,0 0.5,0.224 0.5,0.5c0,0.276 -0.224,0.5 -0.5,0.5h-23.729v31h39.917v-28c0,-0.276 0.224,-0.5 0.5,-0.5c0.276,0 0.5,0.224 0.5,0.5z"></path></g><g><path d="M41.5,38c-1.933,0 -3.5,1.567 -3.5,3.5c0,1.933 1.567,3.5 3.5,3.5c1.933,0 3.5,-1.567 3.5,-3.5c0,-1.933 -1.567,-3.5 -3.5,-3.5z" fill="#f9e65c"></path><path d="M41.5,45.25c-2.067,0 -3.75,-1.683 -3.75,-3.75c0,-2.067 1.683,-3.75 3.75,-3.75c2.067,0 3.75,1.683 3.75,3.75c0,2.067 -1.683,3.75 -3.75,3.75zM41.5,38.25c-1.792,0 -3.25,1.458 -3.25,3.25c0,1.792 1.458,3.25 3.25,3.25c1.792,0 3.25,-1.458 3.25,-3.25c0,-1.792 -1.458,-3.25 -3.25,-3.25z" fill="#472b29"></path></g><g><path d="M38.264,66.128l15.326,-22.691c0.308,-0.454 0.991,-0.46 1.306,-0.011l15.064,21.403v1.299z" fill="#00a7a7"></path><path d="M70.46,66.629h-33.137l15.853,-23.472c0.238,-0.35 0.635,-0.561 1.062,-0.563c0.411,-0.038 0.826,0.201 1.068,0.546l15.154,21.531zM39.206,65.629h30.254v-0.642l-14.973,-21.272c-0.078,-0.112 -0.191,-0.138 -0.242,-0.121c-0.048,0 -0.166,0.013 -0.242,0.125z" fill="#472b29"></path></g><g><path d="M30.122,57.014l6.869,-7.567c0.447,-0.492 1.246,-0.454 1.641,0.077l5.571,7.489l-5.939,9.114h-8.224z" fill="#00a7a7"></path><path d="M38.534,66.629h-9l0.09,-9.81l6.997,-7.708c0.315,-0.348 0.79,-0.533 1.237,-0.508c0.47,0.023 0.898,0.251 1.175,0.624l5.778,7.769zM30.544,65.629h7.448l5.601,-8.596l-5.362,-7.209c-0.099,-0.133 -0.252,-0.214 -0.422,-0.222c-0.167,-0.018 -0.334,0.058 -0.447,0.181l-6.742,7.427z" fill="#472b29"></path></g><g><path d="M59.304,49.374l5.17,-6.08c0.348,-0.408 0.987,-0.378 1.293,0.062l4.192,6.018l-0.043,15.292z" fill="#00a7a7"></path><path d="M70.413,66.258l-11.739,-16.915l5.419,-6.373c0.268,-0.314 0.656,-0.479 1.069,-0.462c0.41,0.021 0.78,0.226 1.016,0.563l4.281,6.146zM59.934,49.405l9.487,13.671l0.038,-13.546l-4.103,-5.888c-0.077,-0.112 -0.187,-0.134 -0.244,-0.136c-0.065,-0.009 -0.17,0.009 -0.258,0.111z" fill="#472b29"></path></g><g fill="#42210b"><path d="M50,22c-1.10457,0 -2,0.89543 -2,2c0,1.10457 0.89543,2 2,2c1.10457,0 2,-0.89543 2,-2c0,-1.10457 -0.89543,-2 -2,-2z"></path></g><g fill="#472b29"><path d="M59,31.125c-0.104,0 -0.207,-0.031 -0.297,-0.098l-8.703,-6.406l-8.703,6.406c-0.224,0.164 -0.535,0.117 -0.699,-0.105c-0.164,-0.222 -0.116,-0.536 0.105,-0.699l9.297,-6.844l9.297,6.844c0.222,0.163 0.27,0.477 0.105,0.699c-0.097,0.133 -0.249,0.203 -0.402,0.203z"></path></g></g></g></svg>