<?xml version="1.0" encoding="UTF-8"?>
<svg version="1.1" xmlns="http://www.w3.org/2000/svg" width="100" height="100">
<path d="M0 0 C9.40707465 5.68464327 15.68680199 13.83643636 18.546875 24.5390625 C19.81816587 35.18018906 19.08411233 45.14253855 13.546875 54.5390625 C12.556875 55.5290625 12.556875 55.5290625 11.546875 56.5390625 C13.031875 57.0340625 13.031875 57.0340625 14.546875 57.5390625 C14.546875 58.8590625 14.546875 60.1790625 14.546875 61.5390625 C13.226875 61.5390625 11.906875 61.5390625 10.546875 61.5390625 C10.216875 60.8790625 9.886875 60.2190625 9.546875 59.5390625 C9.01320313 59.99796875 8.47953125 60.456875 7.9296875 60.9296875 C-2.56169886 69.56965274 -11.91574525 71.83539098 -25.31445312 70.80957031 C-34.8744138 69.60038807 -42.8797787 64.22976046 -48.828125 56.828125 C-51.453125 53.09114583 -51.453125 53.09114583 -51.453125 50.5390625 C-52.2575 50.5596875 -53.061875 50.5803125 -53.890625 50.6015625 C-56.453125 50.5390625 -56.453125 50.5390625 -57.453125 49.5390625 C-57.578125 46.5390625 -57.578125 46.5390625 -57.453125 43.5390625 C-56.958125 43.0440625 -56.958125 43.0440625 -56.453125 42.5390625 C-56.37687052 40.5797461 -56.30610979 38.62003955 -56.26513672 36.65966797 C-55.96707395 24.96481162 -53.82146128 15.03480794 -45.4765625 6.2890625 C-32.87910695 -4.60603419 -15.10756629 -7.47031593 0 0 Z " fill="#FBDFA1" transform="translate(68.453125,16.4609375)"/>
<path d="M0 0 C1.06992187 -0.03738281 2.13984375 -0.07476563 3.2421875 -0.11328125 C6.125 0.3125 6.125 0.3125 8.0078125 2.20703125 C9.125 4.3125 9.125 4.3125 9.125 6.3125 C10.11242188 6.28929687 11.09984375 6.26609375 12.1171875 6.2421875 C13.39851563 6.22414063 14.67984375 6.20609375 16 6.1875 C17.91425781 6.15269531 17.91425781 6.15269531 19.8671875 6.1171875 C23.125 6.3125 23.125 6.3125 25.125 8.3125 C25.38378906 11.35351562 25.38378906 11.35351562 25.390625 15.21875 C25.39349518 16.23950623 25.39349518 16.23950623 25.39642334 17.28088379 C25.39778463 18.71997446 25.39409205 20.15907744 25.38574219 21.59814453 C25.37504128 23.80399087 25.38563872 26.00902281 25.3984375 28.21484375 C25.39711589 29.61198097 25.39455348 31.00911768 25.390625 32.40625 C25.38836914 33.68177734 25.38611328 34.95730469 25.38378906 36.27148438 C25.125 39.3125 25.125 39.3125 23.125 41.3125 C21.17611694 41.55300903 21.17611694 41.55300903 18.76708984 41.53955078 C17.86630707 41.53939972 16.96552429 41.53924866 16.03744507 41.53909302 C15.06344757 41.52877045 14.08945007 41.51844788 13.0859375 41.5078125 C12.08994537 41.5049826 11.09395325 41.50215271 10.06777954 41.49923706 C6.87839882 41.4880184 3.68929622 41.46291081 0.5 41.4375 C-1.65885012 41.42747238 -3.81770463 41.41834615 -5.9765625 41.41015625 C-11.27613699 41.38807361 -16.57554863 41.35457958 -21.875 41.3125 C-21.875 40.9825 -21.875 40.6525 -21.875 40.3125 C-7.355 39.9825 7.165 39.6525 22.125 39.3125 C22.455 37.9925 22.785 36.6725 23.125 35.3125 C22.05523926 35.36579468 22.05523926 35.36579468 20.96386719 35.42016602 C5.93249134 36.14278192 -8.86175051 36.42522659 -23.875 35.3125 C-24.205 36.3025 -24.535 37.2925 -24.875 38.3125 C-24.92438628 34.07667673 -24.96071263 29.84100535 -24.98486328 25.60498047 C-24.99492963 24.16354453 -25.0085838 22.72212905 -25.02587891 21.28076172 C-25.05010012 19.21056066 -25.06147641 17.14062924 -25.0703125 15.0703125 C-25.08078613 13.8239502 -25.09125977 12.57758789 -25.10205078 11.29345703 C-24.875 8.3125 -24.875 8.3125 -22.875 6.3125 C-21.885 6.3125 -20.895 6.3125 -19.875 6.3125 C-19.875 4.9925 -19.875 3.6725 -19.875 2.3125 C-17.235 2.3125 -14.595 2.3125 -11.875 2.3125 C-11.875 3.6325 -11.875 4.9525 -11.875 6.3125 C-10.885 6.3125 -9.895 6.3125 -8.875 6.3125 C-8.565625 5.508125 -8.25625 4.70375 -7.9375 3.875 C-6.12023258 -0.50782141 -4.60855641 0.10499109 0 0 Z " fill="#523633" transform="translate(49.875,28.6875)"/>
<path d="M0 0 C3.96 0 7.92 0 12 0 C12.66 1.32 13.32 2.64 14 4 C17.30764905 4.67044301 17.30764905 4.67044301 21.0625 4.6875 C27.93157895 4.93157895 27.93157895 4.93157895 29 6 C29 7.98 29 9.96 29 12 C13.49 12 -2.02 12 -18 12 C-18 7 -18 7 -16 5 C-12.7421875 4.8046875 -12.7421875 4.8046875 -8.875 4.875 C-6.95300781 4.90207031 -6.95300781 4.90207031 -4.9921875 4.9296875 C-3.51105469 4.96449219 -3.51105469 4.96449219 -2 5 C-1.34 3.35 -0.68 1.7 0 0 Z " fill="#CEC9BC" transform="translate(44,31)"/>
<path d="M0 0 C3.0625 1.9375 3.0625 1.9375 5 5 C6.03945854 9.75058323 5.669717 12.94141507 3.0625 17.0625 C-1.05858493 19.669717 -4.24941677 20.03945854 -9 19 C-12.0625 17.0625 -12.0625 17.0625 -14 14 C-15.03945854 9.24941677 -14.669717 6.05858493 -12.0625 1.9375 C-7.94141507 -0.669717 -4.75058323 -1.03945854 0 0 Z " fill="#B8B3C3" transform="translate(54,44)"/>
<path d="M0 0 C0.33 0 0.66 0 1 0 C1 9.57 1 19.14 1 29 C0.67 28.01 0.34 27.02 0 26 C-5.28 25.67 -10.56 25.34 -16 25 C-14.515 21.535 -14.515 21.535 -13 18 C-12.40306532 13.12503346 -13.58478793 10.22662113 -16 6 C-10.63904667 4.87137825 -5.44693314 4.90311779 0 5 C0 3.35 0 1.7 0 0 Z " fill="#B97744" transform="translate(73,38)"/>
<path d="M0 0 C5.28 0 10.56 0 16 0 C15.01 1.98 14.02 3.96 13 6 C12.37688195 11.81576844 13.21902293 13.43804586 16 19 C10.72 19 5.44 19 0 19 C0 12.73 0 6.46 0 0 Z " fill="#BC7842" transform="translate(26,44)"/>
<path d="M0 0 C15.51 0 31.02 0 47 0 C46.67 1.65 46.34 3.3 46 5 C39.62848163 5.21860185 33.25655855 5.41362281 26.88378906 5.59204102 C24.71467658 5.65558035 22.54571688 5.72457399 20.37695312 5.79907227 C17.26456067 5.90504724 14.15215076 5.99157471 11.0390625 6.07421875 C9.57806625 6.1302552 9.57806625 6.1302552 8.08755493 6.18742371 C6.73638077 6.21779472 6.73638077 6.21779472 5.35791016 6.2487793 C4.56293121 6.27320602 3.76795227 6.29763275 2.94888306 6.32279968 C1.98418594 6.16301384 1.98418594 6.16301384 1 6 C0.34 5.01 -0.32 4.02 -1 3 C-0.67 2.01 -0.34 1.02 0 0 Z " fill="#C7C1B4" transform="translate(26,64)"/>
<path d="M0 0 C3.4375 0.8125 3.4375 0.8125 5.4375 3.8125 C5.25 7.375 5.25 7.375 4.4375 10.8125 C1.4375 12.8125 1.4375 12.8125 -2.125 12.625 C-5.5625 11.8125 -5.5625 11.8125 -7.5625 8.8125 C-7.375 5.25 -7.375 5.25 -6.5625 1.8125 C-3.5625 -0.1875 -3.5625 -0.1875 0 0 Z " fill="#3A2F33" transform="translate(50.5625,47.1875)"/>
<path d="M0 0 C1.06992187 -0.03738281 2.13984375 -0.07476563 3.2421875 -0.11328125 C6.125 0.3125 6.125 0.3125 8.0078125 2.20703125 C9.125 4.3125 9.125 4.3125 9.125 6.3125 C8.465 6.3125 7.805 6.3125 7.125 6.3125 C6.795 5.3225 6.465 4.3325 6.125 3.3125 C2.165 3.3125 -1.795 3.3125 -5.875 3.3125 C-6.205 4.3025 -6.535 5.2925 -6.875 6.3125 C-3.905 6.8075 -3.905 6.8075 -0.875 7.3125 C-0.875 7.6425 -0.875 7.9725 -0.875 8.3125 C-7.805 7.9825 -14.735 7.6525 -21.875 7.3125 C-21.215 6.9825 -20.555 6.6525 -19.875 6.3125 C-19.875 4.9925 -19.875 3.6725 -19.875 2.3125 C-17.235 2.3125 -14.595 2.3125 -11.875 2.3125 C-11.875 3.6325 -11.875 4.9525 -11.875 6.3125 C-10.885 6.3125 -9.895 6.3125 -8.875 6.3125 C-8.565625 5.508125 -8.25625 4.70375 -7.9375 3.875 C-6.12023258 -0.50782141 -4.60855641 0.10499109 0 0 Z " fill="#654E47" transform="translate(49.875,28.6875)"/>
<path d="M0 0 C3 0.125 3 0.125 4 1.125 C4.125 4.125 4.125 4.125 4 7.125 C3 8.125 3 8.125 0 8.25 C-3 8.125 -3 8.125 -4 7.125 C-4.125 4.125 -4.125 4.125 -4 1.125 C-3 0.125 -3 0.125 0 0 Z " fill="#F0BB19" transform="translate(83,10.875)"/>
<path d="M0 0 C2.5625 0.1875 2.5625 0.1875 4.5625 2.1875 C4.00694444 6.74305556 4.00694444 6.74305556 2.5625 8.1875 C0.0625 8.3125 0.0625 8.3125 -2.4375 8.1875 C-3.4375 7.1875 -3.4375 7.1875 -3.5625 4.1875 C-3.39891479 0.26145498 -3.39891479 0.26145498 0 0 Z " fill="#FACD5A" transform="translate(14.4375,58.8125)"/>
<path d="M0 0 C2.64 0 5.28 0 8 0 C8 1.32 8 2.64 8 4 C8.99 4.33 9.98 4.66 11 5 C6.71 5 2.42 5 -2 5 C-1.34 4.67 -0.68 4.34 0 4 C0 2.68 0 1.36 0 0 Z " fill="#472B29" transform="translate(30,31)"/>
<path d="M0 0 C1.98 0.495 1.98 0.495 4 1 C3.67 2.32 3.34 3.64 3 5 C1.68 4.67 0.36 4.34 -1 4 C-0.67 2.68 -0.34 1.36 0 0 Z " fill="#FEFBF4" transform="translate(17,51)"/>
<path d="M0 0 C1.98 0 3.96 0 6 0 C6 0.99 6 1.98 6 3 C4.02 3 2.04 3 0 3 C0 2.01 0 1.02 0 0 Z " fill="#28262D" transform="translate(62,38)"/>
<path d="M0 0 C1.98 0 3.96 0 6 0 C6 0.99 6 1.98 6 3 C4.02 3 2.04 3 0 3 C0 2.01 0 1.02 0 0 Z " fill="#A1958B" transform="translate(31,32)"/>
<path d="M0 0 C1.32 0 2.64 0 4 0 C4 1.32 4 2.64 4 4 C2.68 4 1.36 4 0 4 C0 2.68 0 1.36 0 0 Z " fill="#ED3D53" transform="translate(23,85)"/>
<path d="M0 0 C1.32 0 2.64 0 4 0 C4 1.32 4 2.64 4 4 C2.68 4 1.36 4 0 4 C0 2.68 0 1.36 0 0 Z " fill="#ED3D53" transform="translate(11,27)"/>
<path d="M0 0 C1.32 0 2.64 0 4 0 C4 1.32 4 2.64 4 4 C2.68 4 1.36 4 0 4 C0 2.68 0 1.36 0 0 Z " fill="#ED3D53" transform="translate(85,22)"/>
<path d="M0 0 C0.66 0 1.32 0 2 0 C2 0.66 2 1.32 2 2 C1.34 2 0.68 2 0 2 C0 1.34 0 0.68 0 0 Z " fill="#F0BB18" transform="translate(76,12)"/>
</svg>
